<svg xmlns="http://www.w3.org/2000/svg" xmlns:xlink="http://www.w3.org/1999/xlink" viewBox="0 0 794.88 500"><defs><clipPath id="clip-path" transform="translate(44.88)"><rect width="261.46" height="493.4" fill="none"/></clipPath></defs><g id="BACKGROUND"><path d="M750,0V500H398.8a100,100,0,0,1,11.53-57.77c22.34-41.55-22.15-79.13-93.31-81.74-61.71-2.26-93.53-81.31-40.21-129.12,59.16-53.05-.24-70.05-.24-70.05l-7.69-10.5c127.82-49.43,67,179.46,184.05,19.37,42.14-57.63,74.82-67.88,123.27-65.64C640.26,107.52,665.79,47.94,676,0Z" transform="translate(44.88)" fill="#b8edff" opacity="0.49"/></g><g id="OBJECTS"><path d="M734,435.61c0,4.3-34.89,12.19-149.45,17.12-158.54,6.82-323.72,1.68-289.1-15.3,3.86-1.89,223.89-23.2,346.82-15.73C793,430.87,734,431.32,734,435.61Z" transform="translate(44.88)" fill="#b8edff" opacity="0.49"/><polygon points="647.88 230.22 640.94 271.49 615.3 297.94 618.52 303.84 657.17 278.98 657.28 248.74 647.88 230.22" fill="#9fbce3"/><path d="M595.92,209.44c-2.33-2.17-6.33-5.69-7.64-9.08-1.46-3.79,3.61-5.65,3.61-5.65s4.18-5.91,10.77-6.05c17.14-.37,69.57,28.65,59.07,38.83C629.17,259.08,599.79,213,595.92,209.44Z" transform="translate(44.88)" fill="#2c000d"/><polygon points="650.63 425.39 657.49 424.43 658.2 422.55 672.64 352.66 650.63 346.98 650.63 425.39" fill="#ffb885"/><path d="M606.31,421.73l7,.82-.24,4a1.32,1.32,0,0,1-1.47,1.24L596.15,426s.05-1.41,1.88-1.69S604.79,422.91,606.31,421.73Z" transform="translate(44.88)" fill="#090c1a"/><path d="M715.42,378.16l3.62-5.82-1.76-1L665,359.43l-14.45-29.38L633,348.32l11.07,17.05a18.13,18.13,0,0,0,13.79,8.22Z" transform="translate(44.88)" fill="#ffb885"/><path d="M715.42,378.16l1.86-6.81,3.93.83a1.32,1.32,0,0,1,1,1.64l-4.12,15a1.94,1.94,0,0,1-1.38-2.12C716.71,384.89,716.35,379.84,715.42,378.16Z" transform="translate(44.88)" fill="#090c1a"/><path d="M597.89,253.51l10.64,16.21,19.2-4.73.76-.63-4-30.48a9.51,9.51,0,0,0-10.6-8.62L608,226a9.24,9.24,0,0,0-7.92,7.2L596.87,248A7.19,7.19,0,0,0,597.89,253.51Z" transform="translate(44.88)" fill="#9fbce3"/><path d="M592.87,199.11a39.49,39.49,0,0,1,.14,11.63c-.82,5.44,3.57,11.1,6.79,11.09,4.41,0,10.62-3.2,11.74-8.86,0,0,2.55-.39,2.49-4.23,0-2.43-2.39-3.24-3.85-1.17,0,0-1.5-6.92-5-6.21C596.55,203.08,593.88,199.89,592.87,199.11Z" transform="translate(44.88)" fill="#ffb885"/><polygon points="656.42 212.97 658.77 225.4 651.06 226.51 648.85 217.75 656.42 212.97" fill="#ffb885"/><path d="M601.42,210.08c0,.47.32.84.66.83s.6-.42.58-.89-.32-.85-.66-.83S601.39,209.6,601.42,210.08Z" transform="translate(44.88)" fill="#2c000d"/><path d="M594.68,209.36c0,.48.22.88.57.9s.64-.35.67-.82-.23-.88-.57-.9S594.71,208.89,594.68,209.36Z" transform="translate(44.88)" fill="#2c000d"/><path d="M610.18,207.57s-1-3.73-4.47-3.94-11.1-.88-12.84-4.52,10.76-4.56,15.51-.5A7,7,0,0,1,610.18,207.57Z" transform="translate(44.88)" fill="#2c000d"/><path d="M611.3,210.75a.77.77,0,0,0-.32-1.26s.62-2.24,1.65-1.49" transform="translate(44.88)" fill="none" stroke="#2c000d" stroke-linecap="round" stroke-miterlimit="10" stroke-width="0.5"/><path d="M613.89,225.4l-9.33,11.94c-.29-1.33,1.62-10.82,1.62-10.82Z" transform="translate(44.88)" fill="#ffb885"/><path d="M604.72,220.71s4.58-1.89,4.83-6.25" transform="translate(44.88)" fill="none" stroke="#2c000d" stroke-linecap="round" stroke-miterlimit="10" stroke-width="0.5"/><path d="M602.57,215.07a2.33,2.33,0,0,1-2.25,3" transform="translate(44.88)" fill="none" stroke="#2c000d" stroke-linecap="round" stroke-miterlimit="10" stroke-width="0.5"/><path d="M608.53,269.72l-9.93,83.63s30.42,11.15,55.74,3.24c33.52-10.47,31.5-17.41,31.5-17.41l-33.28-52.36a60.18,60.18,0,0,0-16.31-17l-7.76-5.42Z" transform="translate(44.88)" fill="#232b5e"/><polygon points="664.75 226.51 702.21 254.06 719.72 282.31 714.42 287.1 690.9 264.4 665.57 249.16 664.75 226.51" fill="#9fbce3"/><path d="M669.54,287.1s8.26,6.16,14,2.66a14.19,14.19,0,0,0,1.28-.87,2.61,2.61,0,0,0-2.08-4.61,10.57,10.57,0,0,1-7.92-2Z" transform="translate(44.88)" fill="#ffb885"/><path d="M570.42,297.94s-5.69,1.39-6.47,1.42-.73,1.89-.73,1.89a11.87,11.87,0,0,0-1.38,2.53c.07.34,6.56,4.73,7,4.26s4.78-4.2,4.78-4.2Z" transform="translate(44.88)" fill="#ffb885"/><line x1="653.41" y1="269.72" x2="643.9" y2="255.24" fill="#ffb885" stroke="#0e338a" stroke-linecap="round" stroke-miterlimit="10" opacity="0.48"/><line x1="663.58" y1="247.46" x2="671.86" y2="252.77" fill="#ffb885" stroke="#0e338a" stroke-linecap="round" stroke-miterlimit="10" opacity="0.48"/><polygon points="541.21 227.49 524.19 269.72 490.76 291.85 492.81 298.87 539.69 281.48 546.88 249.37 541.21 227.49" fill="#fff"/><path d="M493.67,203.75c-2-2.86-3.05-11.93-3-13.57.14-3.47,2.13-3,2.13-3s-3.95-4,9.08-3.71c18.65.43,25.06,16.63,11.7,25.3C507.5,212.7,496.94,208.47,493.67,203.75Z" transform="translate(44.88)" fill="#2c000d"/><polygon points="498.52 435.56 506.03 436.15 507.23 434.31 514.22 418.68 506.85 413.61 498.52 435.56" fill="#ffb885"/><path d="M455.09,431.8l7.27,2.51-1.19,4.21a1.43,1.43,0,0,1-1.85,1l-16-5.54a2.11,2.11,0,0,1,2.39-1.35C447.7,432.73,453.2,432.7,455.09,431.8Z" transform="translate(44.88)" fill="#090c1a"/><path d="M467.92,361.72,455.09,431.8l7.27,2.51,33.27-71.53C488.13,359.78,476.07,367.83,467.92,361.72Z" transform="translate(44.88)" fill="#5965ba"/><polygon points="613.59 425.51 620.85 423.81 620.27 421.7 598.13 384.85 582.06 386.25 613.59 425.51" fill="#ffb885"/><path d="M568.71,425.51l6.68-3.81,2.38,3.67a1.43,1.43,0,0,1-.49,2l-14.73,8.39a2.11,2.11,0,0,1,.56-2.69C564.54,431.68,568.14,427.53,568.71,425.51Z" transform="translate(44.88)" fill="#090c1a"/><path d="M485,249.36l4.71,30.06,24.79-9.2,1-.5,2.92-33.31a10.35,10.35,0,0,0-9.25-11.64l-6.46-.63a10,10,0,0,0-10.09,5.8l-6.1,11A13.06,13.06,0,0,0,485,249.36Z" transform="translate(44.88)" fill="#fff"/><path d="M492.84,192.05a42.81,42.81,0,0,1-2.57,12.39c-2.14,5.6,1.2,12.64,4.62,13.38,4.7,1,12-.92,14.56-6.67,0,0,2.79.18,3.63-3.91.53-2.6-1.79-4-3.82-2.15,0,0,0-7.7-3.89-7.77C495.83,197.13,493.73,193.12,492.84,192.05Z" transform="translate(44.88)" fill="#ffb885"/><polygon points="554.33 211.15 553.91 224.91 545.46 224.29 545.16 214.46 554.33 211.15" fill="#ffb885"/><path d="M499.36,205.71a.84.84,0,0,0,.51,1c.37.06.74-.3.82-.81a.84.84,0,0,0-.51-1C499.81,204.84,499.45,205.2,499.36,205.71Z" transform="translate(44.88)" fill="#2c000d"/><path d="M492.36,203.38a.84.84,0,0,0,.4,1.08c.36.1.77-.22.91-.71a.84.84,0,0,0-.4-1.09C492.91,202.56,492.51,202.88,492.36,203.38Z" transform="translate(44.88)" fill="#2c000d"/><path d="M509.26,205.09s-.18-4.19-3.83-5.23-11.59-3.53-12.59-7.81,12.5-2.33,16.6,3.1A7.63,7.63,0,0,1,509.26,205.09Z" transform="translate(44.88)" fill="#2c000d"/><path d="M509.71,208.73a.84.84,0,0,0,0-1.41s1.19-2.24,2.11-1.2" transform="translate(44.88)" fill="none" stroke="#2c000d" stroke-linecap="round" stroke-miterlimit="10" stroke-width="0.5"/><path d="M521.62,370.32l47.09,55.19,6.68-3.81-27.57-59.32A88.67,88.67,0,0,1,521.62,370.32Z" transform="translate(44.88)" fill="#5965ba"/><path d="M544.78,356.29,533.92,297.1a27.75,27.75,0,0,0-.61-4.28,30.71,30.71,0,0,0-7-14c-.51-.59-1-1.15-1.61-1.7a31,31,0,0,0-2.86-2.5l-6.39-4.91h0l-2.55,1-3.95,1.51-9.8,12.88-3.66,4.79-.67.89L512.17,355a29.5,29.5,0,0,0,6.43,11.91l3,3.4a88.67,88.67,0,0,0,26.2-7.94Z" transform="translate(44.88)" fill="#5965ba"/><path d="M509,224.91l-12.7,10.51c0-1.49,4.25-11.13,4.25-11.13Z" transform="translate(44.88)" fill="#ffb885"/><path d="M500.38,217.78s5.31-.93,6.6-5.52" transform="translate(44.88)" fill="none" stroke="#2c000d" stroke-linecap="round" stroke-miterlimit="10" stroke-width="0.5"/><path d="M499.42,211.28a2.55,2.55,0,0,1-3.09,2.63" transform="translate(44.88)" fill="none" stroke="#2c000d" stroke-linecap="round" stroke-miterlimit="10" stroke-width="0.5"/><path d="M488.88,274.63s-18.34,75.78-20,82.93-2.08,10.27-2.08,10.27l28.85-5.05,24-46-4.14-47Z" transform="translate(44.88)" fill="#5965ba"/><path d="M509.26,205.09l-1.42,2.42a1.76,1.76,0,0,1-1.19-2.24c.36-1.88,0-4.62-1.76-5.57-2.67-1.42,6.67,0,4.27,2.5" transform="translate(44.88)" fill="#2c000d"/><line x1="552.85" y1="339.06" x2="550.03" y2="324.97" fill="none" stroke="#2c000d" stroke-linecap="round" stroke-miterlimit="10" stroke-width="0.5"/><polygon points="560.01 227.49 593.38 265.52 605.39 299.64 598.64 303.49 578.95 273.87 555.59 251.75 560.01 227.49" fill="#fff"/><path d="M553.76,303.49S561.1,312,568,309.6q.86-.3,1.56-.63a2.84,2.84,0,0,0-1.13-5.39,11.41,11.41,0,0,1-8-3.94Z" transform="translate(44.88)" fill="#ffb885"/><path d="M445.88,291.84s-6.37.15-7.21,0-1.22,1.84-1.22,1.84-2.06,2-2.06,2.37,5.87,6.55,6.48,6.17,6.06-3.35,6.06-3.35Z" transform="translate(44.88)" fill="#ffb885"/><line x1="533.76" y1="274.63" x2="532.14" y2="261.09" fill="#fff" stroke="#9fbce3" stroke-linecap="round" stroke-miterlimit="10"/><path d="M346.23,183c-2.6-2.6-11.41-12.56,4.43-16.86,19.07-5.18,28.13,12,15.86,23.52C360.91,195,350.53,187.31,346.23,183Z" transform="translate(44.88)" fill="#2c000d"/><polygon points="391.93 437.43 399.88 436.62 400.78 434.48 405.09 416.85 396.45 412.97 391.93 437.43" fill="#ffb885"/><path d="M347.85,433.24l8,1.24-.44,4.61a1.52,1.52,0,0,1-1.74,1.36L336,437.71a2.23,2.23,0,0,1,2.24-1.86C340.32,435.61,346.05,434.53,347.85,433.24Z" transform="translate(44.88)" fill="#090c1a"/><path d="M347.93,357.77l-.08,75.47,8,1.24L377,353.61C368.62,351.91,357.57,362.58,347.93,357.77Z" transform="translate(44.88)" fill="#232b5e"/><path d="M476.37,377.61l3.1-7.54,4.38,1.51a1.53,1.53,0,0,1,.91,2l-6.83,16.61a2.23,2.23,0,0,1-1.28-2.61C476.92,385.48,477.21,379.66,476.37,377.61Z" transform="translate(44.88)" fill="#090c1a"/><path d="M341.71,176.2a45.32,45.32,0,0,1-.33,13.41c-1.17,6.24,3.64,12.94,7.36,13.06,5.08.16,12.37-3.24,13.9-9.71,0,0,2.95-.35,3-4.77.06-2.8-2.62-3.83-4.38-1.51,0,0-1.45-8-5.53-7.37C345.78,180.93,342.84,177.14,341.71,176.2Z" transform="translate(44.88)" fill="#ffb885"/><polygon points="407.52 192.96 409.7 207.38 400.77 208.34 398.6 198.15 407.52 192.96" fill="#ffb885"/><path d="M351.09,189.2c0,.55.34,1,.73,1s.72-.44.71-1-.33-1-.73-1S351.09,188.65,351.09,189.2Z" transform="translate(44.88)" fill="#2c000d"/><path d="M343.36,188.1c-.05.54.23,1,.62,1.05s.76-.37.81-.92-.22-1-.62-1S343.41,187.55,343.36,188.1Z" transform="translate(44.88)" fill="#2c000d"/><path d="M361.3,186.68s-1-4.34-5-4.73-12.75-1.47-14.6-5.75,12.59-4.8,17.89.09A8.08,8.08,0,0,1,361.3,186.68Z" transform="translate(44.88)" fill="#2c000d"/><path d="M362.45,190.39a.88.88,0,0,0-.32-1.46s.82-2.56,2-1.66" transform="translate(44.88)" fill="none" stroke="#2c000d" stroke-linecap="round" stroke-miterlimit="10" stroke-width="0.5"/><path d="M428.3,338,380,252.86h0l-2.48,1.49-3.83,2.32L365.92,272l-2.9,5.7-.53,1,6.4,30.34,31.85,41.29a26.71,26.71,0,0,0,12.16,8.84l63.47,18.43,3.1-7.54Z" transform="translate(44.88)" fill="#232b5e"/><path d="M364.82,207.38l-3.44,2.34a3.8,3.8,0,0,1-5.49-1.38h0Z" transform="translate(44.88)" fill="#ffb885"/><path d="M354.45,201.59s5.35-2,5.83-7" transform="translate(44.88)" fill="none" stroke="#2c000d" stroke-linecap="round" stroke-miterlimit="10" stroke-width="0.5"/><path d="M352.22,195a2.7,2.7,0,0,1-2.73,3.32" transform="translate(44.88)" fill="none" stroke="#2c000d" stroke-linecap="round" stroke-miterlimit="10" stroke-width="0.5"/><path d="M353.25,263s-4.74,82.45-5.13,90.23-.22,11.1-.22,11.1L377,353.61l16.24-52.5L380,252.87Z" transform="translate(44.88)" fill="#232b5e"/><path d="M361.3,186.68l-1,2.79a1.86,1.86,0,0,1-1.66-2.11c0-2-.85-4.82-2.89-5.47-3.06-1,6.94-1.31,4.92,1.8" transform="translate(44.88)" fill="#2c000d"/><path d="M426.35,280.79s9.25,7.44,16,3.66a16.56,16.56,0,0,0,1.51-1,3,3,0,0,0-2.2-5.4,12.12,12.12,0,0,1-9-2.59Z" transform="translate(44.88)" fill="#ffb885"/><path d="M291.23,279.47s-6.74-.19-7.62-.39-1.39,1.88-1.39,1.88-2.29,2-2.31,2.39,5.86,7.26,6.53,6.88S293,287,293,287Z" transform="translate(44.88)" fill="#ffb885"/><path d="M426.35,280.79l6.3-5.29-19-33.29-23.44-27.87a21.75,21.75,0,0,0-18.3-7.68l-7.05.56-12.67,4a23.65,23.65,0,0,0-15.68,16.09l-8.73,30.57-36.56,21.61L293,287l52.63-16.55,1.91,13.94a4.74,4.74,0,0,0,5.73,4.71l43.69-9.3a5.6,5.6,0,0,0,3.95-7.75l-5.88-21.76,5.14,3.36Z" transform="translate(44.88)" fill="#9fbce3"/><path d="M338.59,165.74s-3.52,11.51,11.06,15.17l-2.09-13.74S341.94,169.6,338.59,165.74Z" transform="translate(44.88)" fill="#2c000d"/><path d="M355.67,207.14s0,5.13,4.24,4.94,5.29-3.18,5-4.86Z" transform="translate(44.88)" fill="#ffb885"/><line x1="390.54" y1="270.46" x2="387.27" y2="246.57" fill="#5965ba" stroke="#5965ba" stroke-linecap="round" stroke-miterlimit="10"/><line x1="445.08" y1="253.66" x2="429.16" y2="243.5" fill="#5965ba" stroke="#5965ba" stroke-linecap="round" stroke-miterlimit="10"/><path d="M212,393.17h0c-.35,5.64,1.42,5.45,2.72,5.45h17.9v-.38a1.44,1.44,0,0,0-1-1.35l-5-1.8c-1.75-.64-1.61-1.92-1.61-1.92l-2.94-4.43Z" transform="translate(44.88)" fill="#2c000d"/><path d="M137.19,385.9h0c-3.28,4.6-1.68,5.37-.58,6.06l15.16,9.5.2-.32a1.43,1.43,0,0,0-.08-1.64l-3.25-4.17c-1.14-1.47-.34-2.47-.34-2.47l-.14-5.32Z" transform="translate(44.88)" fill="#2c000d"/><polygon points="192.78 393.34 240.36 300.52 242.21 225.55 207.55 219.99 208.56 300.52 180.51 388.02 192.78 393.34" fill="#5965ba"/><polygon points="270.01 393.17 260.95 292.4 253.92 225.55 222.08 226.57 231.26 303.76 256.91 393.17 270.01 393.17" fill="#5965ba"/><path d="M171.05,196.17l-12,33a4,4,0,0,0,3,5.32l46.86,9.9a4.52,4.52,0,0,0,5.36-3.49l7.41-35L175,193.51A4,4,0,0,0,171.05,196.17Z" transform="translate(44.88)" fill="#ff8c80"/><path d="M195.65,255.55l-.15,38.66a26.28,26.28,0,0,1-2.9,11.92l-44.69,87.21" transform="translate(44.88)" fill="none" stroke="#2c000d" stroke-linecap="round" stroke-miterlimit="10" stroke-width="0.5"/><path d="M226.53,182.6l-10.92,51.65-40.08-32.89-7.72,3.55,13.31-37.1a25.83,25.83,0,0,1,13.78-3.69l9.06.16,10.34,2.21,3.85,2.43,3.53,2.23a10.44,10.44,0,0,1,2.88,2.65,10.29,10.29,0,0,1,1,1.58A10.91,10.91,0,0,1,226.53,182.6Z" transform="translate(44.88)" fill="#ff8c80"/><path d="M234.73,220.13l-14-10L203,197.6l15.14-28.68,3.53,2.23a10.44,10.44,0,0,1,2.88,2.65l1,1.58L237,193.49l4.57-19.26a1,1,0,0,1,1.13-.7l9.33,2.1a1,1,0,0,1,.8,1.07L250.25,213A9.63,9.63,0,0,1,234.73,220.13Z" transform="translate(44.88)" fill="#ff8c80"/><path d="M224.55,146.47c1.38-5.53,4.36-5.52,4.42-8.62.14-6.59-1.91-6.43-1.91-6.43s2.3-6.75-10.72-5-17.8,6.31-17.53,17.45S221.71,157.86,224.55,146.47Z" transform="translate(44.88)" fill="#2c000d"/><path d="M226.18,133.78a45.18,45.18,0,0,0,.86,13c1.36,6-2.95,12.72-6.47,13-4.81.33-11.87-2.72-13.58-9,0,0-2.82-.23-3.08-4.52-.17-2.74,2.34-3.83,4.1-1.64,0,0,1.05-7.86,5-7.36C222.51,138.53,225.15,134.74,226.18,133.78Z" transform="translate(44.88)" fill="#ffb885"/><polygon points="251.87 150.82 248.82 164.27 259.47 166.77 262.62 154.19 251.87 150.82" fill="#ffb885"/><path d="M217.8,146.76c0,.54-.28,1-.66,1s-.69-.42-.7-.95.27-1,.65-1S217.78,146.23,217.8,146.76Z" transform="translate(44.88)" fill="#2c000d"/><path d="M225.1,145.42c.07.53-.18,1-.55,1.05s-.73-.34-.81-.87.18-1,.55-1S225,144.89,225.1,145.42Z" transform="translate(44.88)" fill="#2c000d"/><path d="M208,144.66s.76-4.25,4.55-4.77,12-1.88,13.62-6.11-12.14-4.23-17,.71A8,8,0,0,0,208,144.66Z" transform="translate(44.88)" fill="#2c000d"/><path d="M210.39,154.08a13.22,13.22,0,0,0,6,5.45" transform="translate(44.88)" fill="none" stroke="#2c000d" stroke-linecap="round" stroke-miterlimit="10" stroke-width="0.25"/><path d="M216.87,154s.25,1.79,3,1.54" transform="translate(44.88)" fill="none" stroke="#2c000d" stroke-linecap="round" stroke-miterlimit="10" stroke-width="0.25"/><path d="M207.06,148.32c0-.06-.76-.94.25-1.44,0,0-.88-2.46-1.94-1.54" transform="translate(44.88)" fill="none" stroke="#2c000d" stroke-linecap="round" stroke-miterlimit="10" stroke-width="0.25"/><path d="M203.93,164.27s2.09,6,7,6.3c3.35.2,3.7-3.8,3.7-3.8Z" transform="translate(44.88)" fill="#ffb885"/><path d="M255.11,151.54l-.2,4.68,0,.66-.21,4.68,25.42,12.95a1.12,1.12,0,0,0,1.61-.94l.68-15.48,0-.66.68-15.48a1.11,1.11,0,0,0-1.52-1.08Z" transform="translate(44.88)" fill="#9fbce3"/><path d="M251.61,157.24a5.14,5.14,0,1,1-4-6.09A5.13,5.13,0,0,1,251.61,157.24Z" transform="translate(44.88)" fill="#9fbce3"/><polygon points="288.25 173.69 292.34 164.88 296.87 167.7 297.52 173.05 296.84 175.63 288.25 173.69" fill="#ffb885"/><path d="M246.86,161.51l-1,8.82a1.83,1.83,0,0,0,1.56,2l1.07.14a1.81,1.81,0,0,0,2-1.56l1.14-9.12a1.81,1.81,0,0,0-2-2l-1.2.16A1.81,1.81,0,0,0,246.86,161.51Z" transform="translate(44.88)" fill="#9fbce3"/><path d="M252,175.63l2.75-5,1-7.11a1.61,1.61,0,0,0-1.51-1.83l-6-.29a1.87,1.87,0,0,0-1.73,1l-1.81,3.44a2.69,2.69,0,0,0,1.68,3.86l3.19.85Z" transform="translate(44.88)" fill="#ffb885"/><path d="M102.68,166.65l-18.13-5.33s-2.57.94-.72,3.41h0s3.19,3.07,3.52,4.33,4.34,6.82,5,6.53l7.6.7Z" transform="translate(44.88)" fill="#ffb885"/><rect x="246.36" y="151.22" width="9.01" height="10.3" transform="translate(51.99 -10.87) rotate(2.52)" fill="#7faae3"/><path d="M195.65,192.06l-5.52-25.8c-.2-.95,8.1-2.35,7.16-2.15L105,165.5a3.74,3.74,0,0,0-4.15,2.68L99,174.81a1.74,1.74,0,0,0,1.16,2.15l47.1,14.8.17.05a20.65,20.65,0,0,0,5.13.52l41.15,1.84h.19A1.75,1.75,0,0,0,195.65,192.06Z" transform="translate(44.88)" fill="#ff8c80"/><rect x="471.11" y="166.44" width="37.8" height="37.8" rx="2.97" fill="#b8edff" opacity="0.81"/><path d="M439.39,179.28v12.77a1,1,0,0,0,1.59.86l10.14-6.68a1,1,0,0,0,0-1.73L441,178.4A1,1,0,0,0,439.39,179.28Z" transform="translate(44.88)" fill="#fff"/><rect x="592.7" y="68.54" width="71.99" height="71.99" rx="5.66" fill="#b8edff" opacity="0.81"/><path d="M600.31,100a8.25,8.25,0,0,0-16.5,0,8.25,8.25,0,1,0-16.49,0s-.91,8.8,16.49,20.23C601.22,108.78,600.31,100,600.31,100Z" transform="translate(44.88)" fill="#fff"/><rect x="714.22" y="130.59" width="51.23" height="51.23" rx="4.03" fill="#b8edff" opacity="0.81"/><path d="M692.5,148.59l3.37-3.69-15.46.32,4.71,11.89L689.6,152c5.41,2.48,13.86,6.85,13.79,16.07C703.39,168.05,710.68,155.26,692.5,148.59Z" transform="translate(44.88)" fill="#fff"/><g clip-path="url(#clip-path)"><path d="M282.42,440.9c0,4.3-25.95,12.09-111,16.7C53.7,464-96.55,447.2-27.37,439.76c8-.86,83.71-1,168.74-5.79C253.41,427.7,282.44,436.6,282.42,440.9Z" transform="translate(44.88)" fill="#b8edff" opacity="0.49"/><path d="M-18.52,289.08C-24,284.61-1.65,80.62,37.71,75.51S73,241.68-11.73,386.09Z" transform="translate(44.88)" fill="#b8edff" opacity="0.81"/><path d="M-19.68,396.93c0-5.34,48-198.93,111.65-189.41s-104.57,232-104.57,232Z" transform="translate(44.88)" fill="#b8edff" opacity="0.49"/><path d="M-8,402.48s59.92-123,84.3-168.93" transform="translate(44.88)" fill="none" stroke="#fff" stroke-miterlimit="10"/><path d="M35.56,106.72c-.73,26.59-1.51,89.44-50.28,256.39" transform="translate(44.88)" fill="none" stroke="#fff" stroke-miterlimit="10"/><path d="M17.25,417.45c1.35-1.15,105.67-52.63,101.39-92.54S37,313.6,4.7,404Z" transform="translate(44.88)" fill="#b8edff" opacity="0.81"/><path d="M12.91,407.08s59.78-67,87-80.59" transform="translate(44.88)" fill="none" stroke="#fff" stroke-miterlimit="10"/><rect y="398.62" width="293.62" height="40.95" fill="#9fbce3"/></g></g></svg>